name processed_emg_signals
nRows=49
nColumns=7
 
endheader
time	RGLTMED	RRF	RADDLONG	RST	RTA	RGM
0.97	0.0549163011710155	0.6036258518965326	0.2416722699956769	0.0448498143680938	0.5372180498480709	0.051579270691414
0.971	0.0552083927840862	0.6014212353795008	0.2420133299680031	0.0442646749971597	0.5366181418661926	0.051340189975608
0.972	0.0555109385161743	0.5990515111950957	0.2423464361451604	0.0436615336106343	0.5360268379409766	0.0510984170742021
0.973	0.0558241190414007	0.5965198440847397	0.2426694843049167	0.0430409623148879	0.5354433572616984	0.0508543808651263
0.974	0.0561481042755369	0.5938295662681969	0.2429804254093783	0.0424035761299503	0.534866876828134	0.0506084965384178
0.975	0.0564830530112937	0.5909841696965483	0.2432772679365337	0.0417500333700171	0.5342965331007848	0.0503611652236792
0.976	0.0568291125681793	0.587987298154281	0.2435580800794794	0.0410810359891998	0.5337314237124261	0.0501127736539134
0.977	0.057186418456963	0.584842739234231	0.243820991812234	0.0403973298910619	0.533170609238809	0.0498636938652086
0.978	0.0575550940587884	0.5815544162092752	0.2440641968210894	0.0396997052004212	0.5326131150253417	0.0496142829316223
0.979	0.0579352503189771	0.578126379822801	0.2442859543013699	0.0389889964960644	0.532057933065719	0.0493648827346967
0.98	0.0583269854554071	0.5745628000198877	0.2444845906192896	0.038266083002886	0.5315040239275826	0.0491158197669757
0.981	0.0587303846814224	0.5708679576406807	0.2446585008396849	0.037531888741982	0.5309503187193221	0.0488674049689357
0.982	0.0591455199431391	0.5670462360973679	0.2448061501210484	0.0367873826371545	0.530395721091067	0.048619933598753
0.983	0.0595724496710779	0.5631021130558362	0.2449260749802588	0.0360335785762973	0.5298391092616763	0.0483736851342815
0.984	0.0600112185461227	0.5590401521426868	0.2450168844300249	0.0352715354260454	0.5292793380624166	0.0481289232067362
0.985	0.0604618572798178	0.5548649946971085	0.2450772609925014	0.0345023569981618	0.5287152409872641	0.0478858955654694
0.986	0.0609243824090622	0.5505813515862583	0.2451059615927958	0.0337271919659659	0.5281456322396586	0.0476448340733807
0.987	0.0613987961052281	0.5461939951012577	0.2451018183356636	0.0329472337293312	0.5275693087661718	0.0474059547323345
0.988	0.0618850859976821	0.5417077509497576	0.2450637391687026	0.0321637202264582	0.5269850522684927	0.0471694577380262
0.989	0.0623832250117249	0.5371274903595499	0.2449907084348323	0.031377933690847	0.5263916311863432	0.0469355275636347
0.99	0.0628931712207773	0.532458122306475	0.2448817873164071	0.0305912003516239	0.5257878026451472	0.0467043330715028
0.991	0.0634148677127174	0.5277045858795422	0.2447361141731663	0.0298048900756578	0.5251723143633569	0.046476027652078
0.992	0.0639482424701318	0.522871842794929	0.2445529047759599	0.0290204159497686	0.5245439065152185	0.046250749389219
0.993	0.064493208264322	0.5179648700707548	0.2443314524374625	0.0282392338015429	0.5239013135452839	0.0460286212509998
0.994	0.065049662563016	0.5129886528732867	0.2440711280419883	0.027462841657303	0.5232432659312015	0.045809751305153
0.995	0.0656174874520009	0.5079481775452155	0.2437713799756205	0.0266927791358796	0.5225684918916472	0.0455942329583262
0.996	0.0661965495712124	0.5028484248258585	0.2434317339588257	0.0259306267768963	0.5218757190371005	0.0453821452184164
0.997	0.0667867000660772	0.4976943632724643	0.2430517927834815	0.0251780053023973	0.5211636759623884	0.045173552979223
0.998	0.067387774555083	0.4924909428901403	0.2426312359567073	0.0244365748108049	0.5204310937814114	0.044968507326732
0.999	0.0679995931145737	0.4872430889772502	0.2421698192535277	0.023708033902287	0.5196767076056442	0.044767045866221
1.0	0.068621960281775	0.4819556961916326	0.2416673741814156	0.0229941187347779	0.5188992579691477	0.04456919306944
1.0010000000000001	0.0692546650770308	0.476633622841855	0.2411238073595023	0.0222966020100121	0.5180974922035646	0.0443749606409401
1.002	0.069897481046071	0.4712816854077505	0.2405390998169466	0.0216172918888898	0.51727016576722	0.0441843479026971
1.0030000000000001	0.070550166323115	0.4659046532933075	0.2399133062153646	0.0209580308357293	0.5164160435329942	0.0439973421961045
1.004	0.0712124637153838	0.4605072438151341	0.239246554001009	0.0203206943909132	0.5155339010404315	0.0438139193003719
1.0050000000000001	0.0718841008096041	0.4550941174286855	0.2385390424925177	0.0197071898717789	0.5146225257184458	0.0436340438664043
1.006	0.0725647901008164	0.4496698731936631	0.2377910419103003	0.019119455001479	0.5136807180857598	0.0434576698651697
1.0070000000000001	0.0732542291438691	0.4442390444793608	0.2370028923529886	0.0185594564660207	0.5127072929365418	0.0432847410494944
1.008	0.07395210072769	0.4388060949090603	0.236175002726509	0.0180291883994691	0.5117010805182286	0.0431151914281653
1.0090000000000001	0.0746580730724863	0.4333754145429929	0.2353078496303711	0.0175306707976653	0.5106609277077165	0.0429489457511683
1.01	0.0753718000498164	0.4279513162979326	0.234401976205695	0.0170659478607827	0.5095856991908851	0.0427859200048181
1.0110000000000001	0.0760929214253611	0.4225380326016828	0.23345799094896	0.0166370862652229	0.5084742786493395	0.0426260219154839
1.012	0.0768210631241174	0.4171397122794039	0.2324765664948126	0.0162461733654421	0.507325569957415	0.0424691514605814
1.0130000000000001	0.0775558375175446	0.411760417668448	0.2314584383711765	0.0158953153265488	0.5061384983918428	0.0423152013855288
1.014	0.0782968437321215	0.4064041219575647	0.2304044037290227	0.0155866351885217	0.5049120118559929	0.0421640577253363
1.0150000000000001	0.0790436679786001	0.4010747067456839	0.2293153200494879	0.0153222708632539	0.5036450821198697	0.0420156003295781
1.016	0.0797958839010758	0.395775959814949	0.2281921038296075	0.0151043730656251	0.5023367060760154	0.0418697033895306
1.0170000000000001	0.0805530529448655	0.390511573112167	0.2270357292483418	0.0149351031798405	0.5009859070104243	0.0417262359662751
1.018	0.0813147247419205	0.3852851409326192	0.2258472268132895	0.0148166310625443	0.4995917358863803	0.0415850625184898
